<?xml version="1.0" encoding="UTF-8"?>
<svg id="b" xmlns="http://www.w3.org/2000/svg" viewBox="0 0 500 500">
  <defs>
    <style>
      .d {
        fill: #49a1ff;
        font-family: Impact, Impact;
        font-size: 205.5239px;
      }

      .e {
        fill: #fff;
      }

      .f {
        fill: #6f42c1;
        fill-rule: evenodd;
      }
    </style>
  </defs>
  <g id="c">
    <g>
      <circle class="e" cx="250" cy="250" r="250"/>
      <g>
        <path class="f" d="M250.5425.6682C112.3705.6682.6719,113.1903.6719,252.3954c0,111.2741,71.5692,205.4653,170.8545,238.8025,12.4132,2.5062,16.9602-5.4164,16.9602-12.0808,0-5.8358-.4092-25.8392-.4092-46.6813-69.508,15.0063-83.9824-30.0076-83.9824-30.0076-11.1704-29.1739-27.7213-36.672-27.7213-36.672-22.7499-15.4206,1.6571-15.4206,1.6571-15.4206,25.2356,1.6674,38.4774,25.8392,38.4774,25.8392,22.3356,38.3394,58.3273,27.5065,72.8069,20.837,2.0663-16.2543,8.6898-27.5065,15.7224-33.7566-55.4376-5.8358-113.7649-27.5065-113.7649-124.1988,0-27.5065,9.9224-50.0109,25.6448-67.5132-2.4806-6.2501-11.1704-32.0944,2.4857-66.6847,0,0,21.0979-6.6695,68.6691,25.8392,20.367-5.5102,41.3711-8.3133,62.4702-8.3369,21.0979,0,42.6049,2.9205,62.4651,8.3369,47.5764-32.5086,68.6743-25.8392,68.6743-25.8392,13.6561,34.5903,4.9612,60.4346,2.4806,66.6847,16.1367,17.5023,25.6499,40.0067,25.6499,67.5132,0,96.6923-58.3273,117.9436-114.1792,124.1988,9.1041,7.9174,16.9602,22.9187,16.9602,46.6762,0,33.7566-.4092,60.8489-.4092,69.1806,0,6.6695,4.552,14.5921,16.9602,12.091,99.2854-33.3474,170.8545-127.5335,170.8545-238.8077C500.408,113.1903,388.3002.6682,250.5425.6682Z"/>
        <text class="d" transform="translate(143.5059 324.6406)"><tspan x="0" y="0">25</tspan></text>
      </g>
    </g>
  </g>
</svg>